<?xml version="1.0" encoding="iso-8859-1"?>
<!-- Generator: Adobe Illustrator 19.0.0, SVG Export Plug-In . SVG Version: 6.00 Build 0)  -->
<svg version="1.1" id="Capa_1" xmlns="http://www.w3.org/2000/svg" xmlns:xlink="http://www.w3.org/1999/xlink" x="0px" y="0px"
	 viewBox="0 0 434.819 434.819" style="enable-background:new 0 0 434.819 434.819;" xml:space="preserve">
<path id="XMLID_1044_" d="M165.427,267.302c0.434,4.952-3.229,9.317-8.182,9.75c0,0-99.414,8.665-100.154,8.665
	c-13.051,0-24.198-10.014-25.357-23.256L12.551,43.202c-1.223-13.994,9.165-26.374,23.157-27.597L212.955,0.099
	c6.749-0.593,13.36,1.494,18.582,5.876c5.222,4.382,8.423,10.518,9.015,17.279l8.55,97.723c0.434,4.952-3.229,9.317-8.182,9.75
	c-4.943,0.433-9.316-3.229-9.75-8.181l-8.55-97.724c-0.173-1.971-1.115-3.769-2.653-5.06c-1.538-1.291-3.474-1.906-5.441-1.733
	L37.277,33.537c-4.105,0.359-7.153,3.991-6.794,8.097l19.183,219.259c0.173,1.971,1.115,3.769,2.654,5.061
	c1.54,1.292,3.476,1.91,5.441,1.735l97.916-8.567C160.635,258.684,164.993,262.351,165.427,267.302z M176.358,99.091
	c-7.864-23.599-33.465-36.396-57.062-28.533c-23.599,7.868-36.396,33.466-28.53,57.063c1.571,4.715,6.667,7.263,11.385,5.692
	c4.715-1.572,7.264-6.669,5.691-11.384c-4.728-14.181,2.965-29.565,17.146-34.294c14.18-4.726,29.566,2.966,34.293,17.148
	c4.727,14.183-2.965,29.568-17.144,34.295c-13.853,4.615-21.369,19.642-16.755,33.497c1.257,3.772,4.769,6.159,8.538,6.159
	c0.942,0,1.901-0.149,2.845-0.463c4.716-1.571,7.266-6.667,5.695-11.383c-1.479-4.439,0.929-9.254,5.368-10.733
	C171.425,148.287,184.223,122.688,176.358,99.091z M136.339,197.315c-4.952,0.432-8.616,4.796-8.184,9.748l0.215,2.462
	c0.409,4.686,4.339,8.218,8.956,8.218c0.262,0,0.526-0.011,0.792-0.035c4.952-0.432,8.616-4.796,8.184-9.748l-0.215-2.462
	C145.654,200.547,141.289,196.883,136.339,197.315z M422.268,192.3l-19.183,219.261c-1.16,13.243-12.31,23.257-25.36,23.257
	c-0.74,0-1.487-0.032-2.238-0.098l-177.245-15.507c-13.992-1.226-24.38-13.606-23.157-27.598l19.184-219.26
	c0.591-6.76,3.792-12.896,9.014-17.278c5.223-4.382,11.811-6.472,18.582-5.878h-0.001l177.246,15.507
	C413.101,165.93,423.489,178.309,422.268,192.3z M397.539,182.637l-177.245-15.507c0,0-0.435-0.028-0.65-0.028
	c-1.741,0-3.422,0.614-4.791,1.763c-1.539,1.292-2.481,3.087-2.653,5.058l-19.184,219.26c-0.359,4.106,2.689,7.739,6.795,8.099
	l177.244,15.507c4.102,0.366,7.738-2.689,8.099-6.797l19.183-219.259C404.695,186.629,401.646,182.997,397.539,182.637z
	 M300.687,283.1l-2.462-0.215c-4.943-0.439-9.315,3.233-9.748,8.184c-0.433,4.952,3.231,9.316,8.184,9.748l2.462,0.215
	c0.266,0.023,0.53,0.035,0.793,0.035c4.616,0,8.546-3.533,8.955-8.218C309.303,287.896,305.639,283.532,300.687,283.1z
	 M372.381,298.404c0,0,0,0.002,0,0.003c-0.943,10.773-8.395,19.445-18.134,22.476c1.034,3.236,1.424,6.68,1.118,10.173
	c-0.604,6.904-3.848,13.147-9.134,17.58c-5.282,4.432-11.996,6.544-18.896,5.939c-3.491-0.305-6.814-1.286-9.82-2.864
	c-1.556,3.017-3.716,5.727-6.4,7.979c-4.717,3.958-10.54,6.074-16.601,6.074c-0.759,0-1.521-0.033-2.286-0.1
	c-10.777-0.943-19.451-8.396-22.479-18.14c-9.719,3.106-20.798,0.277-27.751-8.009c-4.435-5.284-6.545-11.996-5.941-18.898
	c0.306-3.492,1.286-6.815,2.865-9.821c-3.016-1.556-5.725-3.715-7.977-6.399c-4.438-5.289-6.56-11.968-5.979-18.813
	c0.002-0.024,0.004-0.048,0.006-0.072c0.599-6.873,3.853-13.111,9.162-17.565c2.685-2.252,5.729-3.909,8.969-4.917
	c-1.032-3.233-1.421-6.676-1.115-10.167c0.604-6.902,3.846-13.145,9.13-17.579c0.031-0.026,0.063-0.052,0.094-0.077
	c5.27-4.382,11.944-6.463,18.807-5.863c3.491,0.305,6.813,1.286,9.818,2.864c1.557-3.016,3.716-5.725,6.4-7.978
	c5.291-4.439,11.979-6.562,18.818-5.98c0.024,0.002,0.049,0.004,0.072,0.006c10.775,0.944,19.446,8.395,22.476,18.136
	c9.716-3.106,20.797-0.276,27.75,8.008c6.952,8.288,7.815,19.689,3.069,28.721C367.489,277.792,373.322,287.627,372.381,298.404z
	 M347.277,288.287l-7.287-0.638c-3.626-0.318-6.704-2.789-7.799-6.26c-1.094-3.471,0.011-7.26,2.799-9.6l5.601-4.699
	c3.334-2.797,3.771-7.786,0.974-11.12c-2.798-3.332-7.786-3.77-11.12-0.973l-5.6,4.7c-2.787,2.339-6.71,2.77-9.941,1.089
	c-3.229-1.681-5.128-5.141-4.811-8.767l0.637-7.283c0.379-4.323-2.819-8.148-7.136-8.547c-0.013-0.001-0.026-0.002-0.04-0.003
	c-2.075-0.183-4.122,0.468-5.747,1.832c-1.624,1.363-2.619,3.26-2.801,5.34l-0.639,7.287c-0.318,3.626-2.789,6.703-6.26,7.797
	c-3.472,1.095-7.26-0.01-9.601-2.798l-4.7-5.601c-1.343-1.602-3.245-2.584-5.357-2.769c-2.111-0.188-4.158,0.453-5.76,1.797
	c-0.017,0.014-0.033,0.028-0.05,0.042c-1.572,1.341-2.538,3.227-2.721,5.318c-0.186,2.112,0.453,4.157,1.796,5.757l4.7,5.603
	c2.34,2.789,2.77,6.711,1.089,9.94c-1.681,3.229-5.125,5.125-8.767,4.811l-7.284-0.636c-2.081-0.179-4.125,0.469-5.75,1.832
	c-1.614,1.354-2.606,3.235-2.796,5.3c-0.002,0.015-0.003,0.029-0.004,0.044c-0.183,2.082,0.468,4.123,1.831,5.747
	s3.261,2.62,5.343,2.802l7.282,0.637c3.626,0.317,6.705,2.788,7.8,6.26c1.094,3.472-0.011,7.262-2.8,9.601l-5.603,4.7
	c-1.6,1.343-2.584,3.246-2.769,5.359c-0.185,2.112,0.454,4.157,1.798,5.758c2.799,3.335,7.785,3.771,11.12,0.975l5.601-4.701
	c1.656-1.39,3.714-2.106,5.788-2.106c1.417,0,2.842,0.334,4.153,1.017c3.229,1.68,5.127,5.14,4.811,8.767l-0.637,7.288
	c-0.379,4.336,2.839,8.171,7.173,8.551c2.09,0.181,4.124-0.468,5.75-1.832c1.624-1.363,2.619-3.259,2.801-5.34l0.639-7.289
	c0.318-3.626,2.789-6.704,6.26-7.798c3.472-1.095,7.262,0.01,9.601,2.798l4.7,5.602c1.344,1.601,3.247,2.584,5.359,2.77
	c2.111,0.185,4.156-0.454,5.759-1.796c1.603-1.345,2.587-3.248,2.771-5.36s-0.453-4.159-1.797-5.761l-4.7-5.599
	c-2.341-2.789-2.771-6.712-1.091-9.942c1.681-3.23,5.143-5.128,8.769-4.811l7.286,0.638c4.337,0.387,8.169-2.84,8.549-7.176
	C354.827,292.501,351.61,288.666,347.277,288.287z"/>
<g>
</g>
<g>
</g>
<g>
</g>
<g>
</g>
<g>
</g>
<g>
</g>
<g>
</g>
<g>
</g>
<g>
</g>
<g>
</g>
<g>
</g>
<g>
</g>
<g>
</g>
<g>
</g>
<g>
</g>
</svg>
