<?xml version="1.0" encoding="iso-8859-1"?>
<!-- Generator: Adobe Illustrator 19.0.0, SVG Export Plug-In . SVG Version: 6.00 Build 0)  -->
<svg version="1.1" id="Capa_1" xmlns="http://www.w3.org/2000/svg" xmlns:xlink="http://www.w3.org/1999/xlink" x="0px" y="0px"
	 viewBox="0 0 512 512" style="enable-background:new 0 0 512 512;" xml:space="preserve">
<path style="fill:#E8EAE9;" d="M151.467,353.067c12.8,11.733,23.467,25.6,30.933,40.533h146.133
	c7.467-14.933,18.133-29.867,30.933-40.533c38.4-33.067,60.8-85.333,52.267-141.867c-9.6-70.4-68.267-126.933-138.667-134.4
	C177.067,66.133,96,140.8,96,234.667C97.067,281.6,118.4,324.267,151.467,353.067z"/>
<path style="fill:#415A6B;" d="M213.333,488.533C221.867,502.4,237.867,512,256,512c18.133,0,33.067-9.6,42.667-23.467H213.333z"/>
<path style="fill:#344A5E;" d="M329.6,471.467v-51.2H182.4v51.2c0,11.733,9.6,22.4,22.4,22.4h103.467
	C320,492.8,329.6,483.2,329.6,471.467z"/>
<g>
	<path style="fill:#415A6B;" d="M333.867,390.4H178.133c-8.533,0-14.933,6.4-14.933,14.933l0,0c0,8.533,6.4,14.933,14.933,14.933
		h155.733c8.533,0,14.933-6.4,14.933-14.933l0,0C348.8,396.8,341.333,390.4,333.867,390.4z"/>
	<path style="fill:#415A6B;" d="M333.867,436.267H178.133c-8.533,0-14.933,6.4-14.933,14.933l0,0c0,8.533,6.4,14.933,14.933,14.933
		h155.733c8.533,0,14.933-6.4,14.933-14.933l0,0C348.8,443.733,341.333,436.267,333.867,436.267z"/>
</g>
<path style="fill:#FFD15C;" d="M158.933,260.267c-11.733-4.267-21.333-13.867-25.6-25.6c-1.067-3.2-2.133-7.467-2.133-10.667
	c0-11.733,4.267-45.867,14.933-59.733c10.667-13.867,40.533-37.333,71.467-44.8S278.4,108.8,320,133.333s56.533,78.933,60.8,92.8
	c4.267,13.867-5.333,49.067-25.6,56.533c0,0-10.667,29.867-48,32c0,0,0,11.733-5.333,9.6c-5.333-2.133-13.867-12.8-13.867-12.8
	s-10.667,2.133-16-16c0,0-8.533,1.067-11.733,2.133c0,0-20.267,16-40.533,9.6c-21.333-6.4-33.067-25.6-33.067-30.933
	s4.267-12.8,4.267-12.8S177.067,266.667,158.933,260.267z"/>
<g>
	<path style="fill:#F3705A;" d="M230.4,296.533c-3.2,1.067-7.467,0-10.667-2.133c-3.2-2.133-6.4-5.333-7.467-7.467
		c0,0,0-1.067,0-2.133l0,0c0-1.067,0-1.067,0-2.133c0-4.267-1.067-9.6,0-12.8c1.067-5.333,3.2-10.667,7.467-13.867
		c1.067-1.067,1.067-2.133,0-2.133c-1.067-1.067-1.067-1.067-2.133,0c-4.267,4.267-7.467,9.6-8.533,16c0,2.133,0,6.4,0,10.667
		C208,279.467,208,278.4,206.933,278.4h-7.467c-1.067,0-2.133,1.067-2.133,2.133s1.067,2.133,1.067,2.133h7.467
		c0,0,1.067,2.133,2.133,3.2c1.067,1.067,1.067,2.133,1.067,2.133c2.133,5.333,7.467,9.6,9.6,10.667c3.2,2.133,6.4,2.133,9.6,2.133
		c1.067,0,2.133,0,4.267,0c1.067,0,1.067-1.067,1.067-2.133C231.467,297.6,230.4,296.533,230.4,296.533z"/>
	<path style="fill:#F3705A;" d="M348.8,258.133c-5.333,4.267-18.133,4.267-21.333,4.267c-1.067-3.2-2.133-5.333-2.133-7.467
		c2.133,0,3.2-1.067,5.333-2.133c1.067-1.067,1.067-2.133,0-2.133c-1.067-1.067-1.067-1.067-2.133,0
		c-1.067,1.067-3.2,1.067-5.333,2.133c-8.533,1.067-17.067,0-25.6-1.067c0-2.133,1.067-4.267,1.067-6.4l0,0c0,0,0,0,1.067-1.067
		c2.133-2.133,3.2-4.267,5.333-6.4c2.133-4.267,3.2-7.467,5.333-11.733c3.2,3.2,10.667,10.667,18.133,10.667
		c-1.067,3.2-2.133,8.533-4.267,10.667c-4.267-2.133-4.267-1.067-4.267,0l1.067,1.067h1.067c4.267-3.2,5.333-10.667,6.4-13.867
		c2.133-1.067,3.2-2.133,5.333-3.2c1.067-1.067,2.133-3.2,3.2-4.267c1.067,2.133,1.067,4.267,2.133,6.4c0,3.2,0,7.467,0,9.6
		s0,4.267-1.067,6.4c-1.067,2.133-2.133,3.2-3.2,4.267c-1.067,0-1.067,1.067-1.067,2.133c0,1.067,1.067,1.067,1.067,1.067
		s0,0,1.067,0c2.133-1.067,4.267-3.2,5.333-6.4c1.067-2.133,1.067-5.333,1.067-7.467c0-3.2,0-7.467,0-10.667s-1.067-6.4-3.2-9.6
		c4.267-8.533,4.267-13.867,4.267-13.867c0-1.067-1.067-2.133-2.133-1.067c-1.067,0-1.067,1.067-1.067,2.133
		c0,0,0,4.267-4.267,11.733l0,0l-1.067,1.067c-1.067,2.133-2.133,4.267-4.267,6.4c-2.133,2.133-3.2,3.2-6.4,3.2l0,0
		c-7.467,0-14.933-8.533-17.067-10.667c2.133-10.667,2.133-22.4,2.133-29.867c5.333-1.067,10.667-3.2,16-6.4
		c1.067,0,1.067-1.067,0-2.133c0-1.067-1.067-1.067-2.133,0c-6.4,4.267-13.867,6.4-22.4,6.4c-4.267,0-8.533-1.067-11.733-3.2
		c-4.267-2.133-6.4-5.333-8.533-8.533c0-1.067-1.067-1.067-2.133-1.067s-1.067,1.067-1.067,2.133c2.133,3.2,4.267,5.333,6.4,7.467
		l0,0c0,4.267,0,8.533-1.067,13.867c-1.067,6.4-2.133,11.733-5.333,17.067c-3.2,4.267-8.533,7.467-12.8,5.333l-1.067-1.067
		c-1.067-1.067-3.2-2.133-4.267-2.133h-1.067c-1.067,0-1.067-1.067-1.067-1.067C256,217.6,256,216.533,256,215.467
		c-1.067-3.2-2.133-6.4-2.133-10.667c0-1.067-1.067-2.133-2.133-2.133c-1.067,0-1.067,1.067-1.067,2.133
		c0,4.267,1.067,7.467,2.133,11.733c1.067,1.067,1.067,3.2,2.133,4.267l0,0c-4.267,2.133-9.6,4.267-12.8,7.467
		c-2.133,2.133-3.2,3.2-4.267,5.333c-2.133,3.2-4.267,5.333-7.467,7.467c-3.2,2.133-7.467,1.067-10.667,1.067h-1.067
		c-2.133,0-4.267-1.067-5.333,0c-6.4,0-12.8,6.4-13.867,13.867c0,1.067,0,2.133,1.067,2.133l0,0c1.067,0,1.067-1.067,1.067-1.067
		c1.067-5.333,5.333-9.6,10.667-10.667c2.133,0,3.2,0,5.333,0h1.067c3.2,1.067,8.533,1.067,11.733-1.067
		c3.2-2.133,6.4-5.333,8.533-8.533c1.067-2.133,2.133-3.2,4.267-5.333c3.2-3.2,8.533-5.333,12.8-7.467
		c1.067,0,2.133-1.067,2.133-1.067l0,0c1.067,0,2.133,1.067,3.2,1.067s1.067,1.067,2.133,1.067c6.4,3.2,12.8-1.067,17.067-6.4
		c3.2-5.333,5.333-11.733,5.333-18.133c1.067-4.267,1.067-8.533,1.067-12.8l0,0c4.267,2.133,8.533,3.2,12.8,3.2
		c1.067,0,1.067,0,2.133,0s2.133,0,3.2,0c0,10.667,0,29.867-7.467,43.733c-1.067,2.133-3.2,4.267-4.267,6.4
		c-2.133,2.133-4.267,3.2-6.4,4.267c-9.6,5.333-22.4,6.4-36.267,6.4c-2.133,0-4.267,0-6.4-1.067c-1.067,0-2.133-1.067-3.2-2.133
		c-1.067-1.067-2.133-1.067-2.133-2.133c-5.333-3.2-11.733-3.2-16,2.133c-1.067,2.133-2.133,5.333-2.133,7.467
		c0,4.267,2.133,9.6,4.267,12.8l1.067,1.067c1.067,1.067,1.067,1.067,2.133,2.133c0,1.067,0,3.2-1.067,3.2
		c-1.067,1.067-2.133,2.133-3.2,2.133h-1.067c-2.133,1.067-5.333,2.133-7.467,4.267c-1.067,1.067-1.067,2.133,0,2.133l1.067,1.067
		h1.067c2.133-1.067,4.267-3.2,6.4-4.267h1.067c1.067-1.067,3.2-1.067,4.267-3.2c2.133-2.133,3.2-4.267,2.133-7.467
		c0-2.133-1.067-3.2-2.133-4.267v-1.067c-2.133-3.2-4.267-6.4-4.267-10.667c0-2.133,0-4.267,1.067-5.333
		c2.133-4.267,8.533-4.267,11.733-2.133c1.067,0,1.067,1.067,2.133,1.067c1.067,1.067,2.133,2.133,3.2,2.133
		c2.133,1.067,4.267,1.067,5.333,1.067c0,1.067,1.067,3.2,2.133,4.267c1.067,1.067,2.133,3.2,2.133,4.267c0,1.067,0,2.133,0,3.2
		c0,2.133,0,4.267,0,6.4c0,3.2,0,6.4,0,9.6c-1.067,0-2.133,0-2.133,0c-1.067,0-3.2,1.067-4.267,2.133l-1.067,4.267
		c-3.2,2.133-6.4,3.2-9.6,3.2c-1.067,0-1.067,0-2.133,0s-2.133,0-3.2,0c-2.133,1.067-4.267,2.133-5.333,4.267
		c0,1.067,0,2.133,1.067,2.133c0,0,0,0,1.067,0c1.067,0,1.067,0,1.067-1.067s2.133-2.133,3.2-2.133c1.067,0,2.133,0,3.2,0
		c1.067,0,1.067,0,2.133,0c4.267,0,7.467-2.133,10.667-4.267l1.067-1.067c1.067-1.067,2.133-1.067,3.2-1.067c1.067,0,3.2,0,4.267,0
		c3.2,0,7.467,0,10.667,0l0,0c2.133,0,5.333,0,8.533-1.067c1.067,0,1.067-1.067,2.133-1.067c1.067-1.067,2.133-1.067,2.133-1.067
		c2.133,0,3.2,0,5.333,1.067c1.067,0,1.067,1.067,2.133,1.067c2.133,1.067,5.333,1.067,8.533,1.067c1.067,0,1.067-1.067,1.067-2.133
		s-1.067-1.067-2.133-1.067c-2.133,0-4.267,0-6.4,0c-1.067,0-1.067,0-2.133-1.067c-2.133-1.067-4.267-2.133-7.467-1.067
		c-1.067,0-2.133,1.067-3.2,2.133c-1.067,0-1.067,1.067-2.133,1.067c-2.133,1.067-4.267,1.067-6.4,0l0,0c-3.2,0-6.4,0-10.667,0
		c0-3.2,0-6.4,0-8.533s0-4.267,0-7.467c0-1.067,0-1.067,0-2.133c2.133,1.067,4.267,2.133,7.467,3.2l7.467,3.2
		c2.133,1.067,4.267,2.133,6.4,2.133s4.267,0,6.4,0l0,0c2.133,0,3.2,0,5.333,0c1.067,0,2.133-1.067,3.2-1.067l0,0
		c7.467-2.133,14.933-4.267,23.467-4.267c1.067,0,1.067-1.067,1.067-2.133c0-1.067-1.067-2.133-2.133-2.133
		c-8.533,0-16,2.133-23.467,4.267l0,0c-1.067,0-2.133,1.067-3.2,1.067s-3.2,0-4.267,0c-2.133,0-4.267,0-6.4,0
		s-4.267-1.067-6.4-2.133l-7.467-3.2c-3.2-1.067-6.4-2.133-9.6-3.2c0-1.067-1.067-2.133-1.067-3.2c0-1.067-1.067-1.067-1.067-2.133
		C265.6,256,278.4,253.867,288,248.533c1.067-1.067,2.133-1.067,3.2-2.133c0,3.2-1.067,7.467-3.2,9.6
		c-2.133,2.133-4.267,3.2-6.4,3.2c-2.133,0-5.333,0-7.467,0h-7.467c-1.067,0-2.133,1.067-2.133,2.133s1.067,2.133,1.067,2.133h7.467
		c1.067,0,2.133,0,3.2,0c2.133,0,3.2,0,5.333,0c3.2-1.067,5.333-2.133,7.467-4.267c1.067-1.067,2.133-2.133,2.133-4.267l0,0
		C297.6,256,302.933,256,309.333,256c2.133,0,4.267,0,7.467,0c2.133,3.2,4.267,10.667,2.133,14.933
		c-3.2,5.333-7.467,7.467-7.467,7.467c-1.067,0-1.067,1.067-1.067,2.133c0,1.067,1.067,1.067,1.067,1.067s0,0,1.067,0
		c0,0,5.333-2.133,9.6-8.533c1.067-2.133,2.133-4.267,1.067-6.4c4.267,0,17.067-1.067,23.467-5.333c1.067-1.067,1.067-2.133,0-2.133
		C349.867,257.067,348.8,257.067,348.8,258.133z"/>
	<path style="fill:#F3705A;" d="M372.267,252.8c-3.2-2.133-7.467-3.2-11.733-4.267c-3.2-1.067-7.467-2.133-10.667,0
		c-1.067,0-1.067,1.067-1.067,2.133c0,1.067,1.067,1.067,2.133,1.067c2.133-1.067,5.333-1.067,8.533,0
		c4.267,1.067,7.467,2.133,10.667,4.267c0,0,0,0,1.067,0s1.067,0,1.067-1.067C373.333,254.933,373.333,253.867,372.267,252.8z"/>
	<path style="fill:#F3705A;" d="M322.133,196.267c-1.067,0-2.133,0-2.133,1.067c0,0-3.2,7.467,1.067,11.733
		c2.133,2.133,4.267,3.2,7.467,3.2c3.2,0,5.333-3.2,7.467-6.4c1.067-2.133,2.133-4.267,2.133-5.333
		c1.067-3.2,2.133-4.267,2.133-4.267c1.067,0,1.067,0,2.133,0s1.067,1.067,2.133,2.133c0,1.067,0,3.2,1.067,5.333
		c1.067,5.333,1.067,9.6,2.133,10.667l1.067,1.067h1.067c1.067-1.067,1.067-2.133,0-2.133c-1.067-1.067-1.067-6.4-2.133-9.6
		c0-2.133,0-4.267-1.067-5.333c0-2.133-2.133-4.267-3.2-5.333c-2.133-1.067-3.2-1.067-5.333,0c-2.133,1.067-3.2,3.2-4.267,6.4
		c-1.067,1.067-1.067,3.2-2.133,5.333c-1.067,3.2-3.2,4.267-5.333,5.333c-1.067,0-3.2,0-4.267-2.133
		c-3.2-3.2-1.067-8.533-1.067-8.533C323.2,198.4,323.2,197.333,322.133,196.267z"/>
	<path style="fill:#F3705A;" d="M234.667,192c2.133-3.2,4.267-5.333,7.467-7.467c3.2-2.133,7.467-3.2,10.667-3.2
		c1.067,0,1.067-1.067,1.067-2.133s-1.067-1.067-2.133-1.067c-4.267,1.067-7.467,2.133-11.733,4.267s-7.467,5.333-9.6,8.533
		c-2.133,3.2-2.133,6.4-3.2,9.6c-1.067,5.333-2.133,12.8,0,18.133c0,1.067,1.067,2.133,1.067,3.2c0,1.067,1.067,2.133,1.067,3.2
		c0,2.133,1.067,4.267,0,6.4c0,1.067,0,2.133,1.067,2.133c0,0,0,0,1.067,0s1.067,0,1.067-1.067c1.067-2.133,1.067-5.333,0-8.533
		c0-1.067-1.067-2.133-1.067-3.2c0-1.067-1.067-2.133-1.067-3.2c-2.133-5.333-1.067-11.733,0-17.067
		C232.533,198.4,233.6,195.2,234.667,192z"/>
	<path style="fill:#F3705A;" d="M181.333,162.133c3.2-6.4,8.533-9.6,13.867-12.8c11.733-5.333,22.4-7.467,30.933-5.333
		c1.067,0,6.4,2.133,6.4,5.333c0,3.2-2.133,6.4-5.333,8.533c-1.067,1.067-1.067,1.067,0,2.133c0,1.067,1.067,1.067,2.133,1.067
		c6.4-3.2,16-1.067,20.267,4.267l1.067,1.067l0,0c1.067,0,1.067-1.067,1.067-1.067c1.067-4.267,6.4-7.467,10.667-9.6h1.067
		c4.267-2.133,9.6-5.333,11.733-9.6c1.067-1.067,1.067-2.133,1.067-3.2c0-1.067,1.067-1.067,1.067-2.133
		c0-1.067,1.067-2.133,2.133-3.2c4.267,2.133,8.533,5.333,11.733,8.533c3.2,3.2,4.267,8.533,4.267,12.8
		c-2.133,0-4.267,1.067-7.467,2.133c-3.2,1.067-4.267,2.133-6.4,2.133c-2.133,0-3.2,1.067-5.333,2.133
		c-4.267,3.2-16,21.333-17.067,26.667l0,0c-3.2-2.133-8.533-4.267-19.2-2.133c-1.067,0-1.067,1.067-1.067,2.133
		c0,1.067,1.067,1.067,2.133,1.067c11.733-2.133,17.067,2.133,18.133,3.2c0,6.4,1.067,13.867,7.467,16l0,0
		c1.067,0,1.067,0,1.067-1.067s0-2.133-1.067-2.133c-7.467-2.133-5.333-14.933-5.333-16c1.067-5.333,11.733-22.4,14.933-24.533
		c2.133-1.067,3.2-1.067,4.267-2.133c1.067,0,3.2-1.067,6.4-2.133c6.4-2.133,11.733-3.2,14.933-2.133
		c3.2,1.067,13.867,8.533,17.067,11.733c1.067,2.133,2.133,3.2,2.133,4.267c0,1.067,0,2.133,1.067,3.2
		c1.067,1.067,3.2,1.067,5.333,2.133c2.133,0,5.333,1.067,9.6,2.133c6.4,2.133,7.467,5.333,7.467,5.333
		c0,1.067,1.067,1.067,2.133,1.067c1.067,0,1.067-1.067,1.067-2.133c0-1.067-1.067-4.267-9.6-7.467
		c-4.267-2.133-7.467-2.133-10.667-2.133c-1.067,0-3.2,0-3.2-1.067c0,0,0,0,0-1.067c0-1.067,0-3.2-3.2-6.4
		c-3.2-3.2-14.933-11.733-19.2-12.8c-2.133,0-4.267,0-7.467,0c0-4.267-1.067-8.533-4.267-12.8c1.067-3.2,5.333-5.333,8.533-4.267
		c1.067,0,2.133,1.067,3.2,1.067c1.067,0,1.067,0,2.133,1.067c3.2,1.067,7.467,1.067,10.667,0c1.067,0,1.067-1.067,1.067-2.133
		s-1.067-1.067-2.133-1.067c-3.2,1.067-6.4,1.067-9.6,0c5.333-2.133,5.333-2.133,4.267-2.133c-1.067,0-3.2-1.067-4.267-1.067
		c-4.267-1.067-8.533,2.133-10.667,5.333c-3.2-3.2-7.467-6.4-10.667-7.467c2.133-2.133,4.267-3.2,6.4-4.267
		c1.067,0,1.067-1.067,1.067-2.133c0-1.067-1.067-1.067-2.133-1.067c-5.333,2.133-9.6,6.4-12.8,11.733
		c0,1.067-1.067,1.067-1.067,2.133c0,1.067-1.067,2.133-1.067,3.2c-2.133,4.267-6.4,6.4-10.667,8.533h-1.067
		c-4.267,2.133-8.533,5.333-10.667,9.6c-2.133-2.133-5.333-4.267-8.533-5.333c0,0,0,0,0-1.067c-1.067-4.267,0-8.533,2.133-11.733
		l1.067-1.067c1.067-1.067,2.133-3.2,3.2-5.333l0,0c0,0,0-1.067,3.2-2.133c1.067,0,2.133,0,4.267-1.067h1.067
		c2.133,0,4.267,0,5.333-2.133c2.133-1.067,3.2-3.2,3.2-5.333c1.067-2.133,1.067-4.267,1.067-5.333c0-1.067,0-2.133-1.067-2.133
		c-1.067,0-2.133,0-2.133,1.067c0,2.133,0,3.2-1.067,5.333c0,1.067-1.067,2.133-2.133,3.2C259.2,131.2,258.133,131.2,256,131.2
		h-1.067c-1.067,0-3.2,0-4.267,1.067c-1.067,0-2.133,1.067-3.2,1.067c0-2.133-1.067-4.267-3.2-5.333
		c-2.133-2.133-5.333-3.2-7.467-4.267c-1.067,0-2.133,0-2.133,1.067c0,1.067,0,2.133,1.067,2.133c2.133,1.067,5.333,2.133,6.4,4.267
		c1.067,1.067,3.2,4.267,2.133,6.4c0,1.067-1.067,2.133-2.133,3.2l-1.067,1.067c-3.2,4.267-4.267,9.6-3.2,13.867
		c-2.133,0-3.2,0-5.333,0c1.067-2.133,2.133-4.267,2.133-7.467c-1.067-4.267-4.267-7.467-8.533-8.533
		c-9.6-3.2-20.267-1.067-33.067,5.333c-5.333,3.2-12.8,6.4-14.933,13.867c0,1.067,0,2.133,1.067,2.133
		C180.267,163.2,181.333,163.2,181.333,162.133z"/>
	<path style="fill:#F3705A;" d="M201.6,240c1.067-1.067,2.133-3.2,2.133-5.333l3.2-13.867c0-1.067,0-2.133-1.067-2.133
		s-2.133,0-2.133,1.067l-3.2,14.933c0,1.067-1.067,3.2-1.067,3.2c-1.067,1.067-3.2,1.067-5.333,1.067
		c-1.067,0-2.133-1.067-2.133-1.067c-1.067-1.067-3.2-1.067-5.333-2.133c-1.067,0-2.133,0-2.133,1.067c0,1.067,0,2.133,1.067,2.133
		c1.067,0,3.2,1.067,4.267,1.067c1.067,0,2.133,1.067,3.2,1.067c1.067,0,2.133,1.067,3.2,1.067
		C198.4,242.133,200.533,242.133,201.6,240z"/>
	<path style="fill:#F3705A;" d="M185.6,251.733c-4.267,0-8.533,0-12.8-1.067c-4.267-1.067-7.467-5.333-8.533-8.533c0,0,0,0,0-1.067
		l0,0c0-1.067,1.067-2.133,2.133-3.2c1.067,0,1.067-1.067,2.133-1.067c2.133-1.067,2.133-2.133,3.2-2.133
		c1.067-1.067,2.133-2.133,3.2-4.267c5.333-8.533,12.8-13.867,20.267-16l0,0c1.067,0,1.067,0,2.133,0
		c2.133-1.067,5.333-1.067,7.467-2.133c4.267-2.133,6.4-5.333,7.467-8.533c0-2.133,0-4.267,0-6.4c0-1.067,0-2.133,0-3.2
		c0-4.267,1.067-7.467,3.2-10.667c2.133-2.133,4.267-4.267,7.467-5.333c1.067,0,1.067,0,2.133,0c1.067,0,1.067-1.067,1.067-2.133
		c0-1.067-1.067-1.067-2.133-1.067h-1.067c-1.067,0-3.2-1.067-4.267-3.2C217.6,169.6,217.6,166.4,217.6,163.2
		c0-5.333,0-10.667,0-14.933V147.2c0-1.067-1.067-2.133-2.133-2.133l0,0c-1.067,0-1.067,1.067-1.067,2.133v1.067
		c0,5.333,0,10.667,0,14.933c0,3.2,0,6.4,1.067,9.6c1.067,1.067,1.067,2.133,2.133,3.2c-2.133,1.067-4.267,3.2-5.333,4.267
		c-1.067,1.067-1.067,2.133-1.067,2.133c-5.333-2.133-8.533-6.4-10.667-11.733s-1.067-11.733,0-17.067c0-1.067,0-2.133-1.067-2.133
		c-1.067,0-2.133,1.067-2.133,1.067c-1.067,6.4-1.067,12.8,1.067,19.2c2.133,5.333,6.4,10.667,11.733,13.867
		c-1.067,2.133-1.067,4.267-1.067,7.467c0,1.067,0,2.133,0,3.2c0,2.133,1.067,4.267,0,5.333c-1.067,3.2-4.267,5.333-5.333,6.4
		c-2.133,1.067-4.267,1.067-6.4,2.133c-1.067,0-1.067,0-2.133,0l0,0c-8.533,2.133-16,7.467-21.333,17.067
		c-1.067,1.067-2.133,2.133-3.2,3.2c-1.067,1.067-1.067,1.067-2.133,1.067c-1.067,0-1.067,1.067-2.133,1.067
		c-1.067,1.067-1.067,1.067-2.133,2.133c-1.067-2.133-4.267-3.2-6.4-3.2l0,0c-4.267-1.067-7.467-3.2-10.667-6.4
		c-1.067-1.067-2.133-1.067-2.133,0c-1.067,1.067,0,2.133,0,2.133c3.2,3.2,7.467,5.333,12.8,6.4l0,0c2.133,0,3.2,1.067,4.267,2.133
		c0,1.067,0,1.067,0,2.133v1.067c1.067,6.4,6.4,9.6,10.667,11.733c3.2,1.067,6.4,1.067,10.667,1.067c1.067,0,3.2,0,4.267,0
		c1.067,0,1.067-1.067,1.067-2.133C187.733,252.8,186.667,251.733,185.6,251.733z"/>
	<path style="fill:#F3705A;" d="M158.933,206.933l-10.667,7.467c-1.067,1.067-2.133,1.067-3.2,2.133
		c-1.067,1.067-2.133,3.2-2.133,4.267c0,1.067,1.067,1.067,1.067,1.067l0,0c1.067,0,1.067-1.067,1.067-2.133
		c0-1.067,0-1.067,1.067-2.133c1.067-1.067,1.067-1.067,2.133-2.133L158.933,208c1.067,0,1.067-1.067,1.067-2.133
		C161.067,206.933,160,206.933,158.933,206.933z"/>
	<path style="fill:#F3705A;" d="M149.333,201.6c1.067-3.2,2.133-5.333,4.267-6.4c1.067-1.067,4.267-2.133,6.4-1.067
		c1.067,0,1.067,1.067,2.133,2.133l1.067,1.067c2.133,2.133,3.2,2.133,5.333,2.133c1.067,0,3.2-1.067,4.267-2.133l1.067-1.067
		c0-1.067,1.067-1.067,1.067-1.067c2.133-2.133,5.333-2.133,8.533-1.067c3.2,1.067,5.333,2.133,8.533,4.267
		c1.067,0,2.133,0,2.133-1.067c0-1.067,0-2.133-1.067-2.133c-3.2-2.133-6.4-3.2-9.6-4.267c-4.267-1.067-8.533,0-10.667,2.133
		c-1.067,1.067-1.067,1.067-2.133,2.133l-1.067,1.067c-1.067,1.067-2.133,1.067-2.133,1.067c-1.067,0-2.133,0-3.2-1.067L163.2,195.2
		c-1.067-1.067-2.133-2.133-3.2-2.133c-3.2-1.067-6.4-1.067-9.6,1.067c-2.133,2.133-4.267,5.333-5.333,7.467
		c-1.067,1.067-1.067,3.2-2.133,3.2c-1.067,1.067-3.2,0-4.267-1.067c0-1.067-1.067-1.067-2.133-1.067s-1.067,1.067,0,2.133
		c1.067,2.133,3.2,3.2,5.333,3.2c1.067,0,2.133,0,3.2-1.067C147.2,204.8,148.267,202.667,149.333,201.6z"/>
	<path style="fill:#F3705A;" d="M139.733,196.267c1.067,0,1.067,0,1.067-1.067c1.067-3.2,4.267-4.267,7.467-5.333l1.067-1.067
		c3.2-1.067,5.333-2.133,8.533-4.267c0,0,0,0,1.067-1.067L160,182.4h1.067c1.067,1.067,6.4,3.2,9.6,0
		c2.133-1.067,2.133-3.2,3.2-5.333c0-1.067,1.067-2.133,1.067-3.2c1.067-2.133,3.2-3.2,6.4-4.267
		c2.133-1.067,5.333-1.067,8.533-1.067c1.067,0,1.067-1.067,1.067-2.133s-1.067-2.133-2.133-2.133l0,0c-3.2,0-6.4,0-8.533,1.067
		c-2.133,1.067-5.333,2.133-8.533,5.333c-1.067,4.267-1.067,5.333-1.067,6.4c-1.067,1.067-1.067,3.2-2.133,4.267
		c-1.067,1.067-3.2,1.067-6.4-1.067c-1.067-1.067-3.2,0-4.267,1.067c-1.067,0-1.067,1.067-2.133,1.067l-1.067,1.067
		c-2.133,2.133-4.267,3.2-7.467,4.267l-1.067,1.067c-3.2,1.067-6.4,3.2-8.533,7.467C137.6,195.2,137.6,196.267,139.733,196.267
		C138.667,196.267,139.733,196.267,139.733,196.267z"/>
	<path style="fill:#F3705A;" d="M144,183.467h1.067c2.133,0,5.333-1.067,8.533-4.267c1.067-1.067,1.067-1.067,2.133-2.133
		c1.067-2.133,3.2-3.2,4.267-4.267c1.067,0,1.067-1.067,2.133-1.067c2.133-1.067,4.267-2.133,5.333-4.267s1.067-4.267,1.067-5.333
		v-1.067c1.067-5.333,2.133-9.6,5.333-12.8c1.067-1.067,0-2.133,0-2.133c-1.067-1.067-2.133-1.067-2.133,0
		c-3.2,4.267-5.333,9.6-6.4,14.933v1.067c0,1.067,0,3.2-1.067,4.267c-1.067,1.067-2.133,2.133-4.267,2.133
		c-1.067,0-2.133,1.067-2.133,1.067c-2.133,1.067-3.2,3.2-5.333,4.267c-1.067,1.067-1.067,1.067-2.133,2.133
		c-2.133,2.133-4.267,3.2-6.4,3.2c-1.067,0-2.133,0-2.133,1.067C142.933,182.4,142.933,183.467,144,183.467z"/>
	<path style="fill:#F3705A;" d="M361.6,252.8L361.6,252.8c-1.067-1.067-2.133-2.133-1.067-2.133c3.2-8.533,5.333-16,5.333-23.467
		c0-8.533-2.133-17.067-6.4-22.4c-1.067-1.067,0-2.133,0-2.133c1.067-1.067,2.133,0,2.133,0c5.333,6.4,7.467,14.933,7.467,24.533
		c0,7.467-2.133,16-5.333,24.533C362.667,252.8,362.667,252.8,361.6,252.8z"/>
</g>
<path style="fill:#66C6B9;" d="M267.733,11.733V38.4c0,6.4-5.333,11.733-11.733,11.733c-6.4,0-12.8-5.333-12.8-11.733V11.733
	C244.267,5.333,249.6,0,256,0C262.4,0,267.733,5.333,267.733,11.733z"/>
<path style="fill:#415A6B;" d="M153.6,36.267l12.8,23.467c3.2,5.333,1.067,12.8-4.267,17.067c-6.4,3.2-13.867,1.067-17.067-4.267
	l-12.8-23.467c-3.2-6.4-1.067-13.867,4.267-17.067C142.933,28.8,150.4,30.933,153.6,36.267z"/>
<path style="fill:#66C6B9;" d="M66.133,114.133L89.6,128c5.333,3.2,7.467,10.667,4.267,17.067c-3.2,6.4-10.667,7.467-17.067,4.267
	l-23.467-12.8c-5.333-3.2-7.467-10.667-4.267-17.067C53.333,113.067,60.8,110.933,66.133,114.133z"/>
<path style="fill:#415A6B;" d="M29.867,226.133h26.667c6.4,0,11.733,5.333,11.733,11.733s-5.333,12.8-11.733,12.8H29.867
	c-6.4,0-11.733-5.333-11.733-12.8C18.133,231.467,23.467,226.133,29.867,226.133z"/>
<g>
	<path style="fill:#66C6B9;" d="M54.4,340.267l23.467-12.8c5.333-3.2,12.8-1.067,17.067,4.267c3.2,6.4,1.067,13.867-4.267,17.067
		L67.2,361.6c-6.4,3.2-13.867,1.067-17.067-4.267C45.867,350.933,48,343.467,54.4,340.267z"/>
	<path style="fill:#66C6B9;" d="M445.867,361.6L422.4,348.8c-5.333-3.2-7.467-10.667-4.267-17.067
		c3.2-6.4,10.667-7.467,17.067-4.267l23.467,12.8c5.333,3.2,7.467,10.667,4.267,17.067C458.667,362.667,451.2,364.8,445.867,361.6z"
		/>
</g>
<path style="fill:#415A6B;" d="M482.133,250.667h-26.667c-6.4,0-11.733-5.333-11.733-11.733s5.333-12.8,11.733-12.8h26.667
	c6.4,0,11.733,5.333,11.733,12.8C493.867,245.333,488.533,250.667,482.133,250.667z"/>
<path style="fill:#66C6B9;" d="M457.6,135.467l-22.4,13.867c-5.333,3.2-12.8,1.067-17.067-4.267c-3.2-6.4-1.067-13.867,4.267-17.067
	l23.467-12.8c5.333-3.2,12.8-1.067,17.067,4.267C466.133,124.8,464,132.267,457.6,135.467z"/>
<path style="fill:#415A6B;" d="M379.733,49.067l-12.8,23.467c-3.2,5.333-10.667,7.467-17.067,4.267S342.4,66.133,345.6,59.733
	l12.8-23.467c3.2-5.333,10.667-7.467,17.067-4.267C380.8,35.2,382.933,42.667,379.733,49.067z"/>
<g>
</g>
<g>
</g>
<g>
</g>
<g>
</g>
<g>
</g>
<g>
</g>
<g>
</g>
<g>
</g>
<g>
</g>
<g>
</g>
<g>
</g>
<g>
</g>
<g>
</g>
<g>
</g>
<g>
</g>
</svg>
